<svg width="24" height="24" viewBox="0 0 24 24" fill="none" xmlns="http://www.w3.org/2000/svg">
<path d="M7.85938 18.6562C7.85938 18.5625 7.76562 18.4688 7.625 18.4688C7.48438 18.4688 7.39062 18.5625 7.39062 18.6562C7.39062 18.75 7.48438 18.8438 7.625 18.7969C7.76562 18.7969 7.85938 18.75 7.85938 18.6562ZM6.40625 18.4219C6.40625 18.5156 6.5 18.6562 6.64062 18.6562C6.73438 18.7031 6.875 18.6562 6.92188 18.5625C6.92188 18.4688 6.875 18.375 6.73438 18.3281C6.59375 18.2812 6.45312 18.3281 6.40625 18.4219ZM8.51562 18.375C8.375 18.375 8.28125 18.4688 8.28125 18.6094C8.28125 18.7031 8.42188 18.75 8.5625 18.7031C8.70312 18.6562 8.79688 18.6094 8.75 18.5156C8.75 18.4219 8.60938 18.3281 8.51562 18.375ZM11.5625 0.375C5.09375 0.375 0.125 5.34375 0.125 11.8125C0.125 17.0156 3.35938 21.4688 8.04688 23.0625C8.65625 23.1562 8.84375 22.7812 8.84375 22.5C8.84375 22.1719 8.84375 20.5781 8.84375 19.5938C8.84375 19.5938 5.5625 20.2969 4.85938 18.1875C4.85938 18.1875 4.34375 16.8281 3.59375 16.5C3.59375 16.5 2.51562 15.75 3.64062 15.75C3.64062 15.75 4.8125 15.8438 5.46875 16.9688C6.5 18.7969 8.1875 18.2812 8.89062 17.9531C8.98438 17.2031 9.26562 16.6875 9.64062 16.3594C7.01562 16.0781 4.34375 15.7031 4.34375 11.2031C4.34375 9.89062 4.71875 9.28125 5.46875 8.4375C5.32812 8.10938 4.95312 6.89062 5.60938 5.25C6.54688 4.96875 8.84375 6.51562 8.84375 6.51562C9.78125 6.23438 10.7656 6.14062 11.75 6.14062C12.7812 6.14062 13.7656 6.23438 14.7031 6.51562C14.7031 6.51562 16.9531 4.92188 17.9375 5.25C18.5938 6.89062 18.1719 8.10938 18.0781 8.4375C18.8281 9.28125 19.2969 9.89062 19.2969 11.2031C19.2969 15.7031 16.5312 16.0781 13.9062 16.3594C14.3281 16.7344 14.7031 17.4375 14.7031 18.5625C14.7031 20.1094 14.6562 22.0781 14.6562 22.4531C14.6562 22.7812 14.8906 23.1562 15.5 23.0156C20.1875 21.4688 23.375 17.0156 23.375 11.8125C23.375 5.34375 18.0781 0.375 11.5625 0.375ZM4.67188 16.5469C4.57812 16.5938 4.625 16.7344 4.67188 16.8281C4.76562 16.875 4.85938 16.9219 4.95312 16.875C5 16.8281 5 16.6875 4.90625 16.5938C4.8125 16.5469 4.71875 16.5 4.67188 16.5469ZM4.15625 16.1719C4.10938 16.2656 4.15625 16.3125 4.25 16.3594C4.34375 16.4062 4.4375 16.4062 4.48438 16.3125C4.48438 16.2656 4.4375 16.2188 4.34375 16.1719C4.25 16.125 4.20312 16.125 4.15625 16.1719ZM5.65625 17.8594C5.60938 17.9062 5.60938 18.0469 5.75 18.1406C5.84375 18.2344 5.98438 18.2812 6.03125 18.1875C6.07812 18.1406 6.07812 18 5.98438 17.9062C5.89062 17.8125 5.75 17.7656 5.65625 17.8594ZM5.14062 17.1562C5.04688 17.2031 5.04688 17.3438 5.14062 17.4375C5.23438 17.5312 5.32812 17.5781 5.42188 17.5312C5.46875 17.4844 5.46875 17.3438 5.42188 17.25C5.32812 17.1562 5.23438 17.1094 5.14062 17.1562Z" fill="#D0D0D0"/>
</svg>
