<svg width="20" height="24" viewBox="0 0 20 24" fill="none" xmlns="http://www.w3.org/2000/svg">
<path d="M13.5 21H3.5V19H13.5V21ZM19.5 9.335L17.879 0L15.886 0.346L17.506 9.681L19.5 9.335ZM13.536 16.272L3.79 15.297L3.604 17.313L13.359 18.192L13.536 16.272ZM14.074 13.685L4.798 11.077L4.272 13.031L13.578 15.531L14.074 13.685ZM15.278 11.272L6.981 6.408L5.952 8.151L14.25 13.016L15.278 11.272ZM17.144 9.805L11.805 1.976L10.133 3.116L15.472 10.945L17.144 9.805ZM14.5 14V22H2.5V14H0.5V24H16.5V14H14.5Z" fill="#D0D0D0"/>
</svg>
